# Mesh "car_turning_plate" exported with UABE; 240 vertices, 420 indices, 384 bits per vertex
g car_turning_plate
# SubMesh 0
# Vertices
v -0 4 -0.1
vt 0.504761 0.656132
vn 0.1305265 0.9914449 0
v 1.035276 3.863703 -0.1
vt 0.588209 0.656132
vn 0.1305265 0.9914449 0
v 1.035276 3.863703 0.1
vt 0.588209 0.635962
vn 0.1305265 0.9914449 0
v -0 4 0.1
vt 0.504761 0.635962
vn 0.1305265 0.9914449 0
v 1.035276 3.863703 -0.1
vt 0.504761 0.656132
vn 0.3826828 0.9238798 0
v 2 3.464102 -0.1
vt 0.588209 0.656132
vn 0.3826828 0.9238798 0
v 2 3.464102 0.1
vt 0.588209 0.635962
vn 0.3826828 0.9238798 0
v 1.035276 3.863703 0.1
vt 0.504761 0.635962
vn 0.3826828 0.9238798 0
v 2 3.464102 -0.1
vt 0.504761 0.656132
vn 0.6087618 0.79335314 0
v 2.828427 2.828427 -0.1
vt 0.588209 0.656132
vn 0.6087618 0.79335314 0
v 2.828427 2.828427 0.1
vt 0.588209 0.635962
vn 0.6087618 0.79335314 0
v 2 3.464102 0.1
vt 0.504761 0.635962
vn 0.6087618 0.79335314 0
v 2.828427 2.828427 -0.1
vt 0.504761 0.656132
vn 0.79335314 0.6087618 0
v 3.464102 2 -0.1
vt 0.588209 0.656132
vn 0.79335314 0.6087618 0
v 3.464102 2 0.1
vt 0.588209 0.635962
vn 0.79335314 0.6087618 0
v 2.828427 2.828427 0.1
vt 0.504761 0.635962
vn 0.79335314 0.6087618 0
v 3.464102 2 -0.1
vt 0.504761 0.656132
vn 0.9238798 0.3826828 0
v 3.863703 1.035276 -0.1
vt 0.588209 0.656132
vn 0.9238798 0.3826828 0
v 3.863703 1.035276 0.1
vt 0.588209 0.635962
vn 0.9238798 0.3826828 0
v 3.464102 2 0.1
vt 0.504761 0.635962
vn 0.9238798 0.3826828 0
v 3.863703 1.035276 -0.1
vt 0.504761 0.656132
vn 0.9914449 0.1305265 0
v 4 0 -0.1
vt 0.588209 0.656132
vn 0.9914449 0.1305265 0
v 4 0 0.1
vt 0.588209 0.635962
vn 0.9914449 0.1305265 0
v 3.863703 1.035276 0.1
vt 0.504761 0.635962
vn 0.9914449 0.1305265 0
v 4 0 -0.1
vt 0.504761 0.656132
vn 0.9914449 -0.1305265 0
v 3.863703 -1.035276 -0.1
vt 0.588209 0.656132
vn 0.9914449 -0.1305265 0
v 3.863703 -1.035276 0.1
vt 0.588209 0.635962
vn 0.9914449 -0.1305265 0
v 4 0 0.1
vt 0.504761 0.635962
vn 0.9914449 -0.1305265 0
v 3.863703 -1.035276 -0.1
vt 0.504761 0.656132
vn 0.9238796 -0.38268313 0
v 3.464102 -1.999999 -0.1
vt 0.588209 0.656132
vn 0.9238796 -0.38268313 0
v 3.464102 -1.999999 0.1
vt 0.588209 0.635962
vn 0.9238796 -0.38268313 0
v 3.863703 -1.035276 0.1
vt 0.504761 0.635962
vn 0.9238796 -0.38268313 0
v 3.464102 -1.999999 -0.1
vt 0.504761 0.656132
vn 0.79335344 -0.6087613 0
v 2.828428 -2.828426 -0.1
vt 0.588209 0.656132
vn 0.79335344 -0.6087613 0
v 2.828428 -2.828426 0.1
vt 0.588209 0.635962
vn 0.79335344 -0.6087613 0
v 3.464102 -1.999999 0.1
vt 0.504761 0.635962
vn 0.79335344 -0.6087613 0
v 2.828428 -2.828426 -0.1
vt 0.504761 0.656132
vn 0.60876185 -0.79335296 0
v 2.000001 -3.464101 -0.1
vt 0.588209 0.656132
vn 0.60876185 -0.79335296 0
v 2.000001 -3.464101 0.1
vt 0.588209 0.635962
vn 0.60876185 -0.79335296 0
v 2.828428 -2.828426 0.1
vt 0.504761 0.635962
vn 0.60876185 -0.79335296 0
v 2.000001 -3.464101 -0.1
vt 0.504761 0.656132
vn 0.38268358 -0.92387944 0
v 1.035277 -3.863703 -0.1
vt 0.588209 0.656132
vn 0.38268358 -0.92387944 0
v 1.035277 -3.863703 0.1
vt 0.588209 0.635962
vn 0.38268358 -0.92387944 0
v 2.000001 -3.464101 0.1
vt 0.504761 0.635962
vn 0.38268358 -0.92387944 0
v 1.035277 -3.863703 -0.1
vt 0.504761 0.656132
vn 0.13052662 -0.99144477 0
v 2e-06 -4 -0.1
vt 0.588209 0.656132
vn 0.13052662 -0.99144477 0
v 2e-06 -4 0.1
vt 0.588209 0.635962
vn 0.13052662 -0.99144477 0
v 1.035277 -3.863703 0.1
vt 0.504761 0.635962
vn 0.13052662 -0.99144477 0
v 2e-06 -4 -0.1
vt 0.504761 0.656132
vn -0.13052545 -0.99144495 0
v -1.035275 -3.863704 -0.1
vt 0.588209 0.656132
vn -0.13052545 -0.99144495 0
v -1.035275 -3.863704 0.1
vt 0.588209 0.635962
vn -0.13052545 -0.99144495 0
v 2e-06 -4 0.1
vt 0.504761 0.635962
vn -0.13052545 -0.99144495 0
v -1.035275 -3.863704 -0.1
vt 0.504761 0.656132
vn -0.38268313 -0.9238796 0
v -1.999998 -3.464103 -0.1
vt 0.588209 0.656132
vn -0.38268313 -0.9238796 0
v -1.999998 -3.464103 0.1
vt 0.588209 0.635962
vn -0.38268313 -0.9238796 0
v -1.035275 -3.863704 0.1
vt 0.504761 0.635962
vn -0.38268313 -0.9238796 0
v -1.999998 -3.464103 -0.1
vt 0.504761 0.656132
vn -0.6087608 -0.79335386 0
v -2.828426 -2.828429 -0.1
vt 0.588209 0.656132
vn -0.6087608 -0.79335386 0
v -2.828426 -2.828429 0.1
vt 0.588209 0.635962
vn -0.6087608 -0.79335386 0
v -1.999998 -3.464103 0.1
vt 0.504761 0.635962
vn -0.6087608 -0.79335386 0
v -2.828426 -2.828429 -0.1
vt 0.504761 0.656132
vn -0.7933533 -0.6087614 0
v -3.464101 -2.000001 -0.1
vt 0.588209 0.656132
vn -0.7933533 -0.6087614 0
v -3.464101 -2.000001 0.1
vt 0.588209 0.635962
vn -0.7933533 -0.6087614 0
v -2.828426 -2.828429 0.1
vt 0.504761 0.635962
vn -0.7933533 -0.6087614 0
v -3.464101 -2.000001 -0.1
vt 0.504761 0.656132
vn -0.9238793 -0.3826839 0
v -3.863703 -1.035278 -0.1
vt 0.588209 0.656132
vn -0.9238793 -0.3826839 0
v -3.863703 -1.035278 0.1
vt 0.588209 0.635962
vn -0.9238793 -0.3826839 0
v -3.464101 -2.000001 0.1
vt 0.504761 0.635962
vn -0.9238793 -0.3826839 0
v -3.863703 -1.035278 -0.1
vt 0.504761 0.656132
vn -0.9914449 -0.1305265 0
v -4 -2e-06 -0.1
vt 0.588209 0.656132
vn -0.9914449 -0.1305265 0
v -4 -2e-06 0.1
vt 0.588209 0.635962
vn -0.9914449 -0.1305265 0
v -3.863703 -1.035278 0.1
vt 0.504761 0.635962
vn -0.9914449 -0.1305265 0
v -4 -2e-06 -0.1
vt 0.504761 0.656132
vn -0.99144495 0.13052559 0
v -3.863704 1.035274 -0.1
vt 0.588209 0.656132
vn -0.99144495 0.13052559 0
v -3.863704 1.035274 0.1
vt 0.588209 0.635962
vn -0.99144495 0.13052559 0
v -4 -2e-06 0.1
vt 0.504761 0.635962
vn -0.99144495 0.13052559 0
v -3.863704 1.035274 -0.1
vt 0.504761 0.656132
vn -0.9238798 0.3826828 0
v -3.464103 1.999998 -0.1
vt 0.588209 0.656132
vn -0.9238798 0.3826828 0
v -3.464103 1.999998 0.1
vt 0.588209 0.635962
vn -0.9238798 0.3826828 0
v -3.863704 1.035274 0.1
vt 0.504761 0.635962
vn -0.9238798 0.3826828 0
v -3.464103 1.999998 -0.1
vt 0.504761 0.656132
vn -0.79335356 0.60876125 0
v -2.828429 2.828425 -0.1
vt 0.588209 0.656132
vn -0.79335356 0.60876125 0
v -2.828429 2.828425 0.1
vt 0.588209 0.635962
vn -0.79335356 0.60876125 0
v -3.464103 1.999998 0.1
vt 0.504761 0.635962
vn -0.79335356 0.60876125 0
v -2.828429 2.828425 -0.1
vt 0.504761 0.656132
vn -0.6087618 0.79335314 0
v -2.000002 3.4641 -0.1
vt 0.588209 0.656132
vn -0.6087618 0.79335314 0
v -2.000002 3.4641 0.1
vt 0.588209 0.635962
vn -0.6087618 0.79335314 0
v -2.828429 2.828425 0.1
vt 0.504761 0.635962
vn -0.6087618 0.79335314 0
v 3.692134 0.989305 0.1
vt 0.651465 0.931087
vn -0 0 1
v 3.822379 0 0.1
vt 0.652199 0.925507
vn -0 0 1
v 3.692134 -0.989304 0.1
vt 0.651465 0.919926
vn -0 0 1
v 3.310277 1.911189 0.1
vt 0.649311 0.936287
vn -0 0 1
v 3.310277 -1.911189 0.1
vt 0.649311 0.914726
vn -0 0 1
v 2.70283 2.70283 0.1
vt 0.645884 0.940752
vn -0 0 1
v 2.702831 -2.702829 0.1
vt 0.645884 0.910261
vn -0 0 1
v 1.91119 -3.310277 0.1
vt 0.641419 0.906835
vn -0 0 1
v 1.911189 3.310277 0.1
vt 0.641419 0.944178
vn -0 0 1
v 0.989306 -3.692134 0.1
vt 0.636219 0.904681
vn -0 0 1
v 0.989304 3.692134 0.1
vt 0.636219 0.946332
vn -0 0 1
v 1e-06 -3.822379 0.1
vt 0.630639 0.903946
vn -0 0 1
v -0 3.822379 0.1
vt 0.630639 0.947067
vn -0 0 1
v -0.989303 -3.692135 0.1
vt 0.625058 0.904681
vn -0 0 1
v -0.989307 3.692133 0.1
vt 0.625058 0.946332
vn -0 0 1
v -1.911188 -3.310278 0.1
vt 0.619859 0.906835
vn -0 0 1
v -1.911192 3.310276 0.1
vt 0.619858 0.944178
vn -0 0 1
v -2.702829 -2.702832 0.1
vt 0.615393 0.910261
vn -0 0 1
v -2.702832 2.702828 0.1
vt 0.615393 0.940752
vn -0 0 1
v -3.310277 -1.911191 0.1
vt 0.611967 0.914726
vn -0 0 1
v -3.310278 1.911188 0.1
vt 0.611967 0.936287
vn -0 0 1
v -3.692134 -0.989306 0.1
vt 0.609813 0.919926
vn -0 0 1
v -3.692135 0.989303 0.1
vt 0.609813 0.931087
vn -0 0 1
v -3.822379 -2e-06 0.1
vt 0.609078 0.925507
vn -0 0 1
v -1.035279 3.863703 -0.1
vt 0.504761 0.656132
vn -0.13052611 0.9914449 0
v -0 4 -0.1
vt 0.588209 0.656132
vn -0.13052611 0.9914449 0
v -0 4 0.1
vt 0.588209 0.635962
vn -0.13052611 0.9914449 0
v -1.035279 3.863703 0.1
vt 0.504761 0.635962
vn -0.13052611 0.9914449 0
v -2.000002 3.4641 -0.1
vt 0.504761 0.656132
vn -0.38268495 0.9238789 0
v -1.035279 3.863703 -0.1
vt 0.588209 0.656132
vn -0.38268495 0.9238789 0
v -1.035279 3.863703 0.1
vt 0.588209 0.635962
vn -0.38268495 0.9238789 0
v -2.000002 3.4641 0.1
vt 0.504761 0.635962
vn -0.38268495 0.9238789 0
v 3.863703 -1.035276 -0.1
vt 0.773217 0.360789
vn -0 0 -1
v 4 0 -0.1
vt 0.773361 0.361885
vn -0 0 -1
v 3.863703 1.035276 -0.1
vt 0.773217 0.36298
vn -0 0 -1
v 3.464102 -1.999999 -0.1
vt 0.772794 0.359768
vn -0 0 -1
v 3.464102 2 -0.1
vt 0.772794 0.364001
vn -0 0 -1
v 2.828428 -2.828426 -0.1
vt 0.772122 0.358892
vn -0 0 -1
v 2.828427 2.828427 -0.1
vt 0.772122 0.364878
vn -0 0 -1
v 2.000001 -3.464101 -0.1
vt 0.771245 0.358219
vn -0 0 -1
v 2 3.464102 -0.1
vt 0.771245 0.36555
vn -0 0 -1
v 1.035277 -3.863703 -0.1
vt 0.770224 0.357796
vn -0 0 -1
v 1.035276 3.863703 -0.1
vt 0.770224 0.365973
vn -0 0 -1
v 2e-06 -4 -0.1
vt 0.769129 0.357652
vn -0 0 -1
v -0 4 -0.1
vt 0.769129 0.366117
vn -0 0 -1
v -1.035275 -3.863704 -0.1
vt 0.768033 0.357796
vn -0 0 -1
v -1.035279 3.863703 -0.1
vt 0.768033 0.365973
vn -0 0 -1
v -1.999998 -3.464103 -0.1
vt 0.767012 0.358219
vn -0 0 -1
v -2.000002 3.4641 -0.1
vt 0.767012 0.36555
vn -0 0 -1
v -2.828426 -2.828429 -0.1
vt 0.766136 0.358892
vn -0 0 -1
v -2.828429 2.828425 -0.1
vt 0.766136 0.364878
vn -0 0 -1
v -3.464101 -2.000001 -0.1
vt 0.765463 0.359768
vn -0 0 -1
v -3.464103 1.999998 -0.1
vt 0.765463 0.364001
vn -0 0 -1
v -3.863703 -1.035278 -0.1
vt 0.76504 0.360789
vn -0 0 -1
v -3.863704 1.035274 -0.1
vt 0.76504 0.36298
vn -0 0 -1
v -4 -2e-06 -0.1
vt 0.764896 0.361885
vn -0 0 -1
v -0 3.822379 0.1
vt 0.564606 0.70592
vn -0 0 1
v -0 4 0.1
vt 0.536081 0.70592
vn -0 0 1
v 1.035276 3.863703 0.1
vt 0.536081 0.770966
vn -0 0 1
v 0.989304 3.692134 0.1
vt 0.564606 0.770966
vn -0 0 1
v 0.989304 3.692134 0.1
vt 0.564606 0.70592
vn -0 0 1
v 1.035276 3.863703 0.1
vt 0.536081 0.70592
vn -0 0 1
v 2 3.464102 0.1
vt 0.536081 0.770966
vn -0 0 1
v 1.911189 3.310277 0.1
vt 0.564606 0.770966
vn -0 0 1
v 1.911189 3.310277 0.1
vt 0.564606 0.70592
vn -0 0 1
v 2 3.464102 0.1
vt 0.536081 0.70592
vn -0 0 1
v 2.828427 2.828427 0.1
vt 0.536081 0.770966
vn -0 0 1
v 2.70283 2.70283 0.1
vt 0.564606 0.770966
vn -0 0 1
v 2.70283 2.70283 0.1
vt 0.564606 0.70592
vn -0 0 1
v 2.828427 2.828427 0.1
vt 0.536081 0.70592
vn -0 0 1
v 3.464102 2 0.1
vt 0.536081 0.770966
vn -0 0 1
v 3.310277 1.911189 0.1
vt 0.564606 0.770966
vn -0 0 1
v 3.310277 1.911189 0.1
vt 0.564606 0.70592
vn -0 0 1
v 3.464102 2 0.1
vt 0.536081 0.70592
vn -0 0 1
v 3.863703 1.035276 0.1
vt 0.536081 0.770966
vn -0 0 1
v 3.692134 0.989305 0.1
vt 0.564606 0.770966
vn -0 0 1
v 3.692134 0.989305 0.1
vt 0.564606 0.70592
vn -0 0 1
v 3.863703 1.035276 0.1
vt 0.536081 0.70592
vn -0 0 1
v 4 0 0.1
vt 0.536081 0.770966
vn -0 0 1
v 3.822379 0 0.1
vt 0.564606 0.770966
vn -0 0 1
v 3.822379 0 0.1
vt 0.564606 0.70592
vn -0 0 1
v 4 0 0.1
vt 0.536081 0.70592
vn -0 0 1
v 3.863703 -1.035276 0.1
vt 0.536081 0.770966
vn -0 0 1
v 3.692134 -0.989304 0.1
vt 0.564606 0.770966
vn -0 0 1
v 3.692134 -0.989304 0.1
vt 0.564606 0.70592
vn -0 0 1
v 3.863703 -1.035276 0.1
vt 0.536081 0.70592
vn -0 0 1
v 3.464102 -1.999999 0.1
vt 0.536081 0.770966
vn -0 0 1
v 3.310277 -1.911189 0.1
vt 0.564606 0.770966
vn -0 0 1
v 3.310277 -1.911189 0.1
vt 0.564606 0.70592
vn -0 0 1
v 3.464102 -1.999999 0.1
vt 0.536081 0.70592
vn -0 0 1
v 2.828428 -2.828426 0.1
vt 0.536081 0.770966
vn -0 0 1
v 2.702831 -2.702829 0.1
vt 0.564606 0.770966
vn -0 0 1
v 2.702831 -2.702829 0.1
vt 0.564606 0.70592
vn -0 0 1
v 2.828428 -2.828426 0.1
vt 0.536081 0.70592
vn -0 0 1
v 2.000001 -3.464101 0.1
vt 0.536081 0.770966
vn -0 0 1
v 1.91119 -3.310277 0.1
vt 0.564606 0.770966
vn -0 0 1
v 1.91119 -3.310277 0.1
vt 0.564606 0.70592
vn -0 0 1
v 2.000001 -3.464101 0.1
vt 0.536081 0.70592
vn -0 0 1
v 1.035277 -3.863703 0.1
vt 0.536081 0.770966
vn -0 0 1
v 0.989306 -3.692134 0.1
vt 0.564606 0.770966
vn -0 0 1
v 0.989306 -3.692134 0.1
vt 0.564606 0.70592
vn -0 0 1
v 1.035277 -3.863703 0.1
vt 0.536081 0.70592
vn -0 0 1
v 2e-06 -4 0.1
vt 0.536081 0.770966
vn -0 0 1
v 1e-06 -3.822379 0.1
vt 0.564606 0.770966
vn -0 0 1
v 1e-06 -3.822379 0.1
vt 0.564606 0.70592
vn -0 0 1
v 2e-06 -4 0.1
vt 0.536081 0.70592
vn -0 0 1
v -1.035275 -3.863704 0.1
vt 0.536081 0.770966
vn -0 0 1
v -0.989303 -3.692135 0.1
vt 0.564606 0.770966
vn -0 0 1
v -0.989303 -3.692135 0.1
vt 0.564606 0.70592
vn -0 0 1
v -1.035275 -3.863704 0.1
vt 0.536081 0.70592
vn -0 0 1
v -1.999998 -3.464103 0.1
vt 0.536081 0.770966
vn -0 0 1
v -1.911188 -3.310278 0.1
vt 0.564606 0.770966
vn -0 0 1
v -1.911188 -3.310278 0.1
vt 0.564606 0.70592
vn -0 0 1
v -1.999998 -3.464103 0.1
vt 0.536081 0.70592
vn -0 0 1
v -2.828426 -2.828429 0.1
vt 0.536081 0.770966
vn -0 0 1
v -2.702829 -2.702832 0.1
vt 0.564606 0.770966
vn -0 0 1
v -2.702829 -2.702832 0.1
vt 0.564606 0.70592
vn -0 0 1
v -2.828426 -2.828429 0.1
vt 0.536081 0.70592
vn -0 0 1
v -3.464101 -2.000001 0.1
vt 0.536081 0.770966
vn -0 0 1
v -3.310277 -1.911191 0.1
vt 0.564606 0.770966
vn -0 0 1
v -3.310277 -1.911191 0.1
vt 0.564606 0.70592
vn -0 0 1
v -3.464101 -2.000001 0.1
vt 0.536081 0.70592
vn -0 0 1
v -3.863703 -1.035278 0.1
vt 0.536081 0.770966
vn -0 0 1
v -3.692134 -0.989306 0.1
vt 0.564606 0.770966
vn -0 0 1
v -3.692134 -0.989306 0.1
vt 0.564606 0.70592
vn -0 0 1
v -3.863703 -1.035278 0.1
vt 0.536081 0.70592
vn -0 0 1
v -4 -2e-06 0.1
vt 0.536081 0.770966
vn -0 0 1
v -3.822379 -2e-06 0.1
vt 0.564606 0.770966
vn -0 0 1
v -3.822379 -2e-06 0.1
vt 0.564606 0.70592
vn -0 0 1
v -4 -2e-06 0.1
vt 0.536081 0.70592
vn -0 0 1
v -3.863704 1.035274 0.1
vt 0.536081 0.770966
vn -0 0 1
v -3.692135 0.989303 0.1
vt 0.564606 0.770966
vn -0 0 1
v -3.692135 0.989303 0.1
vt 0.564606 0.70592
vn -0 0 1
v -3.863704 1.035274 0.1
vt 0.536081 0.70592
vn -0 0 1
v -3.464103 1.999998 0.1
vt 0.536081 0.770966
vn -0 0 1
v -3.310278 1.911188 0.1
vt 0.564606 0.770966
vn -0 0 1
v -3.310278 1.911188 0.1
vt 0.564606 0.70592
vn -0 0 1
v -3.464103 1.999998 0.1
vt 0.536081 0.70592
vn -0 0 1
v -2.828429 2.828425 0.1
vt 0.536081 0.770966
vn -0 0 1
v -2.702832 2.702828 0.1
vt 0.564606 0.770966
vn -0 0 1
v -2.702832 2.702828 0.1
vt 0.564606 0.70592
vn -0 0 1
v -2.828429 2.828425 0.1
vt 0.536081 0.70592
vn -0 0 1
v -2.000002 3.4641 0.1
vt 0.536081 0.770966
vn -0 0 1
v -1.911192 3.310276 0.1
vt 0.564606 0.770966
vn -0 0 1
v -1.911192 3.310276 0.1
vt 0.564606 0.70592
vn -0 0 1
v -2.000002 3.4641 0.1
vt 0.536081 0.70592
vn -0 0 1
v -1.035279 3.863703 0.1
vt 0.536081 0.770966
vn -0 0 1
v -0.989307 3.692133 0.1
vt 0.564606 0.770966
vn -0 0 1
v -0.989307 3.692133 0.1
vt 0.564606 0.70592
vn -0 0 1
v -1.035279 3.863703 0.1
vt 0.536081 0.70592
vn -0 0 1
v -0 4 0.1
vt 0.536081 0.770966
vn -0 0 1
v -0 3.822379 0.1
vt 0.564606 0.770966
vn -0 0 1
# Faces (%u to %u)
g %s_%u
f -238/-238/-238 -239/-239/-239 -240/-240/-240
f -237/-237/-237 -238/-238/-238 -240/-240/-240
f -234/-234/-234 -235/-235/-235 -236/-236/-236
f -233/-233/-233 -234/-234/-234 -236/-236/-236
f -230/-230/-230 -231/-231/-231 -232/-232/-232
f -229/-229/-229 -230/-230/-230 -232/-232/-232
f -226/-226/-226 -227/-227/-227 -228/-228/-228
f -225/-225/-225 -226/-226/-226 -228/-228/-228
f -222/-222/-222 -223/-223/-223 -224/-224/-224
f -221/-221/-221 -222/-222/-222 -224/-224/-224
f -218/-218/-218 -219/-219/-219 -220/-220/-220
f -217/-217/-217 -218/-218/-218 -220/-220/-220
f -214/-214/-214 -215/-215/-215 -216/-216/-216
f -213/-213/-213 -214/-214/-214 -216/-216/-216
f -210/-210/-210 -211/-211/-211 -212/-212/-212
f -209/-209/-209 -210/-210/-210 -212/-212/-212
f -206/-206/-206 -207/-207/-207 -208/-208/-208
f -205/-205/-205 -206/-206/-206 -208/-208/-208
f -202/-202/-202 -203/-203/-203 -204/-204/-204
f -201/-201/-201 -202/-202/-202 -204/-204/-204
f -198/-198/-198 -199/-199/-199 -200/-200/-200
f -197/-197/-197 -198/-198/-198 -200/-200/-200
f -194/-194/-194 -195/-195/-195 -196/-196/-196
f -193/-193/-193 -194/-194/-194 -196/-196/-196
f -190/-190/-190 -191/-191/-191 -192/-192/-192
f -189/-189/-189 -190/-190/-190 -192/-192/-192
f -186/-186/-186 -187/-187/-187 -188/-188/-188
f -185/-185/-185 -186/-186/-186 -188/-188/-188
f -182/-182/-182 -183/-183/-183 -184/-184/-184
f -181/-181/-181 -182/-182/-182 -184/-184/-184
f -178/-178/-178 -179/-179/-179 -180/-180/-180
f -177/-177/-177 -178/-178/-178 -180/-180/-180
f -174/-174/-174 -175/-175/-175 -176/-176/-176
f -173/-173/-173 -174/-174/-174 -176/-176/-176
f -170/-170/-170 -171/-171/-171 -172/-172/-172
f -169/-169/-169 -170/-170/-170 -172/-172/-172
f -166/-166/-166 -167/-167/-167 -168/-168/-168
f -165/-165/-165 -166/-166/-166 -168/-168/-168
f -162/-162/-162 -163/-163/-163 -164/-164/-164
f -161/-161/-161 -162/-162/-162 -164/-164/-164
f -158/-158/-158 -159/-159/-159 -160/-160/-160
f -157/-157/-157 -158/-158/-158 -160/-160/-160
f -154/-154/-154 -155/-155/-155 -156/-156/-156
f -153/-153/-153 -154/-154/-154 -156/-156/-156
f -150/-150/-150 -151/-151/-151 -152/-152/-152
f -152/-152/-152 -149/-149/-149 -150/-150/-150
f -149/-149/-149 -148/-148/-148 -150/-150/-150
f -149/-149/-149 -147/-147/-147 -148/-148/-148
f -147/-147/-147 -146/-146/-146 -148/-148/-148
f -147/-147/-147 -145/-145/-145 -146/-146/-146
f -147/-147/-147 -144/-144/-144 -145/-145/-145
f -144/-144/-144 -143/-143/-143 -145/-145/-145
f -144/-144/-144 -142/-142/-142 -143/-143/-143
f -142/-142/-142 -141/-141/-141 -143/-143/-143
f -142/-142/-142 -140/-140/-140 -141/-141/-141
f -140/-140/-140 -139/-139/-139 -141/-141/-141
f -140/-140/-140 -138/-138/-138 -139/-139/-139
f -138/-138/-138 -137/-137/-137 -139/-139/-139
f -138/-138/-138 -136/-136/-136 -137/-137/-137
f -136/-136/-136 -135/-135/-135 -137/-137/-137
f -136/-136/-136 -134/-134/-134 -135/-135/-135
f -134/-134/-134 -133/-133/-133 -135/-135/-135
f -134/-134/-134 -132/-132/-132 -133/-133/-133
f -132/-132/-132 -131/-131/-131 -133/-133/-133
f -132/-132/-132 -130/-130/-130 -131/-131/-131
f -130/-130/-130 -129/-129/-129 -131/-131/-131
f -126/-126/-126 -127/-127/-127 -128/-128/-128
f -125/-125/-125 -126/-126/-126 -128/-128/-128
f -122/-122/-122 -123/-123/-123 -124/-124/-124
f -121/-121/-121 -122/-122/-122 -124/-124/-124
f -118/-118/-118 -119/-119/-119 -120/-120/-120
f -120/-120/-120 -117/-117/-117 -118/-118/-118
f -117/-117/-117 -116/-116/-116 -118/-118/-118
f -117/-117/-117 -115/-115/-115 -116/-116/-116
f -115/-115/-115 -114/-114/-114 -116/-116/-116
f -115/-115/-115 -113/-113/-113 -114/-114/-114
f -113/-113/-113 -112/-112/-112 -114/-114/-114
f -113/-113/-113 -111/-111/-111 -112/-112/-112
f -111/-111/-111 -110/-110/-110 -112/-112/-112
f -111/-111/-111 -109/-109/-109 -110/-110/-110
f -109/-109/-109 -108/-108/-108 -110/-110/-110
f -109/-109/-109 -107/-107/-107 -108/-108/-108
f -107/-107/-107 -106/-106/-106 -108/-108/-108
f -107/-107/-107 -105/-105/-105 -106/-106/-106
f -105/-105/-105 -104/-104/-104 -106/-106/-106
f -105/-105/-105 -103/-103/-103 -104/-104/-104
f -103/-103/-103 -102/-102/-102 -104/-104/-104
f -103/-103/-103 -101/-101/-101 -102/-102/-102
f -101/-101/-101 -100/-100/-100 -102/-102/-102
f -101/-101/-101 -99/-99/-99 -100/-100/-100
f -99/-99/-99 -98/-98/-98 -100/-100/-100
f -99/-99/-99 -97/-97/-97 -98/-98/-98
f -94/-94/-94 -95/-95/-95 -96/-96/-96
f -93/-93/-93 -94/-94/-94 -96/-96/-96
f -90/-90/-90 -91/-91/-91 -92/-92/-92
f -89/-89/-89 -90/-90/-90 -92/-92/-92
f -86/-86/-86 -87/-87/-87 -88/-88/-88
f -85/-85/-85 -86/-86/-86 -88/-88/-88
f -82/-82/-82 -83/-83/-83 -84/-84/-84
f -81/-81/-81 -82/-82/-82 -84/-84/-84
f -78/-78/-78 -79/-79/-79 -80/-80/-80
f -77/-77/-77 -78/-78/-78 -80/-80/-80
f -74/-74/-74 -75/-75/-75 -76/-76/-76
f -73/-73/-73 -74/-74/-74 -76/-76/-76
f -70/-70/-70 -71/-71/-71 -72/-72/-72
f -69/-69/-69 -70/-70/-70 -72/-72/-72
f -66/-66/-66 -67/-67/-67 -68/-68/-68
f -65/-65/-65 -66/-66/-66 -68/-68/-68
f -62/-62/-62 -63/-63/-63 -64/-64/-64
f -61/-61/-61 -62/-62/-62 -64/-64/-64
f -58/-58/-58 -59/-59/-59 -60/-60/-60
f -57/-57/-57 -58/-58/-58 -60/-60/-60
f -54/-54/-54 -55/-55/-55 -56/-56/-56
f -53/-53/-53 -54/-54/-54 -56/-56/-56
f -50/-50/-50 -51/-51/-51 -52/-52/-52
f -49/-49/-49 -50/-50/-50 -52/-52/-52
f -46/-46/-46 -47/-47/-47 -48/-48/-48
f -45/-45/-45 -46/-46/-46 -48/-48/-48
f -42/-42/-42 -43/-43/-43 -44/-44/-44
f -41/-41/-41 -42/-42/-42 -44/-44/-44
f -38/-38/-38 -39/-39/-39 -40/-40/-40
f -37/-37/-37 -38/-38/-38 -40/-40/-40
f -34/-34/-34 -35/-35/-35 -36/-36/-36
f -33/-33/-33 -34/-34/-34 -36/-36/-36
f -30/-30/-30 -31/-31/-31 -32/-32/-32
f -29/-29/-29 -30/-30/-30 -32/-32/-32
f -26/-26/-26 -27/-27/-27 -28/-28/-28
f -25/-25/-25 -26/-26/-26 -28/-28/-28
f -22/-22/-22 -23/-23/-23 -24/-24/-24
f -21/-21/-21 -22/-22/-22 -24/-24/-24
f -18/-18/-18 -19/-19/-19 -20/-20/-20
f -17/-17/-17 -18/-18/-18 -20/-20/-20
f -14/-14/-14 -15/-15/-15 -16/-16/-16
f -13/-13/-13 -14/-14/-14 -16/-16/-16
f -10/-10/-10 -11/-11/-11 -12/-12/-12
f -9/-9/-9 -10/-10/-10 -12/-12/-12
f -6/-6/-6 -7/-7/-7 -8/-8/-8
f -5/-5/-5 -6/-6/-6 -8/-8/-8
f -2/-2/-2 -3/-3/-3 -4/-4/-4
f -1/-1/-1 -2/-2/-2 -4/-4/-4

