# Mesh "desertPeaksStone" exported with UABE; 174 vertices, 300 indices, 384 bits per vertex
g desertPeaksStone
# SubMesh 0
# Vertices
v -2.01558 -1.741091 -1.079313
vt 0.401557 0.811717
vn -0.7501284 -0.38550508 -0.5373018
v -1.959969 -2.865419 -0.350265
vt 0.413238 0.760502
vn -0.004345526 -0.9993032 -0.0370704
v -2.549526 -1.716683 -0.351382
vt 0.41428 0.739672
vn -0.7501284 -0.38550508 -0.5373018
v -2.179361 0.898976 -0.319896
vt 0.403777 0.741317
vn -0.6416132 0.69871694 -0.31642884
v -1.257656 1.723021 -0.369209
vt 0.39352 0.770678
vn -0.35295388 0.9146517 0.19706851
v -1.429739 1.243416 -1.079313
vt 0.387878 0.821284
vn 0.011242732 0.06281213 -0.997962
v 1.442903 1.243416 -0.8545
vt 0.368275 0.890727
vn 0.32201925 0.067225456 -0.9443434
v 1.369408 2.008908 -0.31382
vt 0.372932 0.844934
vn -0 1 0
v 2.134901 1.243416 -0.31382
vt 0.369339 0.870118
vn 0.5242822 0.5242828 -0.67101103
v 2.134901 -1.420078 -0.31382
vt 0.377492 0.877358
vn 0.996219 -0.08687726 0
v 1.48968 -2.59748 -0.31382
vt 0.3861 0.861087
vn 0.4543478 -0.8330754 0.31552094
v 1.442903 -1.766078 -0.8545
vt 0.377487 0.898908
vn 0.6798346 -0.3725521 -0.63168824
v -2.310836 -2.589238 1.389952
vt 0.435809 0.615613
vn -0.5184469 -0.39639366 0.75768393
v -1.61052 -2.990071 1.659443
vt 0.434811 0.617156
vn -0.004345526 -0.9993032 -0.0370704
v -1.231814 -2.184175 2.34019
vt 0.437503 0.574152
vn -0.5184469 -0.39639366 0.75768393
v -2.06389 0.116052 1.367221
vt 0.425343 0.617455
vn -0.71124536 0.24818917 0.65767175
v -1.137828 0.227611 2.34019
vt 0.429391 0.570432
vn -0.051121544 0.12188022 0.99122745
v -1.291307 1.374988 1.619188
vt 0.418494 0.618013
vn -0.35295388 0.9146517 0.19706851
v 1.369408 2.008908 0.303371
vt 0.380272 0.797569
vn -0 1 0
v 1.535698 1.243458 1.159416
vt 0.391506 0.738973
vn 0.6145955 0.07507403 0.785262
v 2.134901 1.243416 0.160896
vt 0.374985 0.833686
vn 0.6821255 0.6059444 0.40931195
v 2.134901 -1.420078 0.196724
vt 0.383564 0.838178
vn 0.996219 -0.08687726 0
v 1.527826 -1.420122 1.185172
vt 0.400027 0.744
vn 0.64714324 -0.57914585 0.49577782
v 1.369408 -2.185571 0.35188
vt 0.393689 0.805249
vn 0.4543478 -0.8330754 0.31552094
v 0.636844 1.243416 1.863788
vt 0.406854 0.65779
vn 0.6145955 0.07507403 0.785262
v 0.803154 2.008908 0.753593
vt 0.390018 0.745928
vn -0.05361161 0.9955968 0.07689485
v -0.585073 1.563734 1.574698
vt 0.411911 0.642228
vn -0.23180619 0.9566012 0.17657876
v -0.409706 0.520706 2.34019
vt 0.422848 0.59161
vn -0.051121544 0.12188022 0.99122745
v -0.727831 1.243416 -1.079313
vt 0.382435 0.842467
vn 0.0045724334 0.061851274 -0.9980749
v -0.727831 2.008908 -0.31382
vt 0.389195 0.78164
vn -0.23180619 0.9566012 0.17657876
v 0.803154 2.008908 -0.31382
vt 0.377323 0.827845
vn -0.05361161 0.9955968 0.07689485
v 0.803154 1.243416 -1.079313
vt 0.370562 0.888672
vn 0.32201925 0.067225456 -0.9443434
v -0.409706 -1.804093 2.34019
vt 0.429964 0.59793
vn 0.5051325 -0.5273285 0.68320256
v -0.588793 -2.944084 1.609566
vt 0.426153 0.651694
vn 0.10068834 -0.9947635 0.017533803
v 0.774789 -2.524463 0.908406
vt 0.405956 0.745515
vn 0.4543478 -0.8330754 0.31552094
v 0.644716 -1.420078 1.87386
vt 0.415066 0.664496
vn 0.5574893 -0.54330915 0.62771076
v 0.803154 -2.127574 -1.079313
vt 0.380881 0.897836
vn 0.07977502 -0.7481045 -0.6587683
v 0.695669 -2.819754 -0.352385
vt 0.392479 0.840687
vn 0.4543478 -0.8330754 0.31552094
v -0.666369 -2.919332 -0.358139
vt 0.403278 0.800294
vn 0.10068834 -0.9947635 0.017533803
v -0.727831 -2.33143 -1.079313
vt 0.393378 0.852186
vn 0.07977502 -0.7481045 -0.6587683
v -1.308331 -1.01849 2.483102
vt 0.436228 0.557706
vn 0.0011686124 0.001337698 0.99999845
v -2.383893 -1.295615 1.451459
vt 0.433147 0.605171
vn -0.7129491 0.18928449 0.67518514
v -1.885343 -0.235916 -1.185463
vt 0.394677 0.819702
vn -0.006754643 -0.00069142017 -0.999977
v -2.573872 -0.407586 -0.387623
vt 0.41003 0.73816
vn -0.78029525 -0.0022834109 -0.62540704
v 1.606117 -0.063719 1.230141
vt 0.395803 0.739224
vn 0.61587477 0.006530046 0.78781706
v 2.253185 -0.063719 0.164295
vt 0.378109 0.840549
vn 0.9999987 0.0016291626 0
v 1.510786 -0.249319 -0.944276
vt 0.37125 0.903723
vn 0.3396476 0.00013108896 -0.9405527
v 2.253185 -0.063719 -0.364216
vt 0.371824 0.881108
vn 0.9999987 0.0016291626 0
v -0.47676 -0.657386 2.483102
vt 0.428674 0.581821
vn 0.0011686124 0.001337698 0.99999845
v 0.650239 -0.063719 1.977403
vt 0.412103 0.653029
vn 0.5585959 -0.021703515 0.8291559
v 0.82444 -0.443232 -1.185463
vt 0.374298 0.902046
vn 0.3396476 0.00013108896 -0.9405527
v -0.818055 -0.552584 -1.185463
vt 0.38737 0.852773
vn -0.002392601 -0.0003904373 -0.99999714
v -1.959969 -2.865419 -0.350265
vt 0.413238 0.760502
vn -0.7501284 -0.38550508 -0.5373018
v -1.429739 1.243416 -1.079313
vt 0.387878 0.821284
vn -0.6416132 0.69871694 -0.31642884
v -1.257656 1.723021 -0.369209
vt 0.39352 0.770678
vn -0.6416132 0.69871694 -0.31642884
v 1.442903 1.243416 -0.8545
vt 0.368275 0.890727
vn 0.5242822 0.5242828 -0.67101103
v 1.369408 2.008908 -0.31382
vt 0.372932 0.844934
vn 0.5242822 0.5242828 -0.67101103
v 2.134901 -1.420078 -0.31382
vt 0.377492 0.877358
vn 0.6798346 -0.3725521 -0.63168824
v 1.48968 -2.59748 -0.31382
vt 0.3861 0.861087
vn 0.6798346 -0.3725521 -0.63168824
v -1.61052 -2.990071 1.659443
vt 0.434811 0.617156
vn -0.5184469 -0.39639366 0.75768393
v -1.291307 1.374988 1.619188
vt 0.418494 0.618013
vn -0.7068536 0.3061559 0.6376728
v -1.137828 0.227611 2.34019
vt 0.429391 0.570432
vn -0.71124536 0.24818917 0.65767175
v 1.369408 2.008908 0.303371
vt 0.380272 0.797569
vn 0.6821255 0.6059444 0.40931195
v 1.535698 1.243458 1.159416
vt 0.391506 0.738973
vn 0.6821255 0.6059444 0.40931195
v 2.134901 -1.420078 0.196724
vt 0.383564 0.838178
vn 0.7390045 -0.57686883 0.34798646
v 1.369408 -2.185571 0.35188
vt 0.393689 0.805249
vn 0.69989955 -0.5741587 0.4248323
v 0.636844 1.243416 1.863788
vt 0.406854 0.65779
vn 0.024519129 0.7197212 0.69383013
v -0.409706 0.520706 2.34019
vt 0.422848 0.59161
vn 0.024519129 0.7197212 0.69383013
v -0.585073 1.563734 1.574698
vt 0.411911 0.642228
vn 0.024519129 0.7197212 0.69383013
v 0.803154 2.008908 0.753593
vt 0.390018 0.745928
vn 0.024519129 0.7197212 0.69383013
v -0.727831 1.243416 -1.079313
vt 0.382435 0.842467
vn -0.07488049 0.7386161 -0.6699546
v 0.803154 1.243416 -1.079313
vt 0.370562 0.888672
vn 0.07012031 0.67895484 -0.73082376
v 0.803154 2.008908 -0.31382
vt 0.377323 0.827845
vn 0.07012031 0.67895484 -0.73082376
v -0.727831 2.008908 -0.31382
vt 0.389195 0.78164
vn -0.07488049 0.7386161 -0.6699546
v 0.774789 -2.524463 0.908406
vt 0.405956 0.745515
vn 0.5574893 -0.54330915 0.62771076
v -0.588793 -2.944084 1.609566
vt 0.426153 0.651694
vn 0.5051325 -0.5273285 0.68320256
v -0.666369 -2.919332 -0.358139
vt 0.403278 0.800294
vn 0.07977502 -0.7481045 -0.6587683
v 0.695669 -2.819754 -0.352385
vt 0.392479 0.840687
vn 0.07977502 -0.7481045 -0.6587683
v -1.959969 -2.865419 -0.350265
vt 0.413238 0.760502
vn -0.7630959 -0.64422077 -0.051616363
v -2.549526 -1.716683 -0.351382
vt 0.41428 0.739672
vn -0.7630959 -0.64422077 -0.051616363
v -2.310836 -2.589238 1.389952
vt 0.435809 0.615613
vn -0.7630959 -0.64422077 -0.051616363
v -1.61052 -2.990071 1.659443
vt 0.434811 0.617156
vn -0.7630959 -0.64422077 -0.051616363
v -1.308331 -1.01849 2.483102
vt 0.436228 0.557706
vn -0.7129491 0.18928449 0.67518514
v -1.291307 1.374988 1.619188
vt 0.418494 0.618013
vn -0.7691356 0.6058102 0.20352967
v -2.06389 0.116052 1.367221
vt 0.425343 0.617455
vn -0.7691356 0.6058102 0.20352967
v -2.179361 0.898976 -0.319896
vt 0.403777 0.741317
vn -0.7691356 0.6058102 0.20352967
v -1.257656 1.723021 -0.369209
vt 0.39352 0.770678
vn -0.7691356 0.6058102 0.20352967
v -1.885343 -0.235916 -1.185463
vt 0.394677 0.819702
vn -0.78029525 -0.0022834109 -0.62540704
v -2.549526 -1.716683 -0.351382
vt 0.41428 0.739672
vn -0.78029525 -0.0022834109 -0.62540704
v -2.01558 -1.741091 -1.079313
vt 0.401557 0.811717
vn -0.78029525 -0.0022834109 -0.62540704
v 0.636844 1.243416 1.863788
vt 0.406854 0.65779
vn 0.435747 0.71018153 0.5529618
v 0.803154 2.008908 0.753593
vt 0.390018 0.745928
vn 0.435747 0.71018153 0.5529618
v 1.369408 2.008908 0.303371
vt 0.380272 0.797569
vn 0.435747 0.71018153 0.5529618
v 1.535698 1.243458 1.159416
vt 0.391506 0.738973
vn 0.435747 0.71018153 0.5529618
v 2.134901 1.243416 0.160896
vt 0.374985 0.833686
vn 0.70710635 0.7071072 0
v 1.369408 2.008908 0.303371
vt 0.380272 0.797569
vn 0.70710635 0.7071072 0
v 1.369408 2.008908 -0.31382
vt 0.372932 0.844934
vn 0.70710635 0.7071072 0
v 2.134901 1.243416 -0.31382
vt 0.369339 0.870118
vn 0.70710635 0.7071072 0
v -1.257656 1.723021 -0.369209
vt 0.39352 0.770678
vn -0.14916342 0.7642308 -0.62745655
v -1.429739 1.243416 -1.079313
vt 0.387878 0.821284
vn -0.14916342 0.7642308 -0.62745655
v 1.606117 -0.063719 1.230141
vt 0.395803 0.739224
vn 0.8547892 0.0060648457 0.5189399
v 2.253185 -0.063719 0.164295
vt 0.378109 0.840549
vn 0.8547892 0.0060648457 0.5189399
v 2.134901 -1.420078 0.196724
vt 0.383564 0.838178
vn 0.8517585 -0.06412475 0.5199958
v 1.527826 -1.420122 1.185172
vt 0.400027 0.744
vn 0.8517585 -0.06412475 0.5199958
v 1.369408 -2.185571 0.35188
vt 0.393689 0.805249
vn 0.7390045 -0.57686883 0.34798646
v 2.134901 -1.420078 -0.31382
vt 0.377492 0.877358
vn 0.7885914 -0.5507461 0.27350003
v 1.48968 -2.59748 -0.31382
vt 0.3861 0.861087
vn 0.7885914 -0.5507461 0.27350003
v 1.510786 -0.249319 -0.944276
vt 0.37125 0.903723
vn 0.62151325 0.0006993236 -0.78340334
v 2.253185 -0.063719 -0.364216
vt 0.371824 0.881108
vn 0.62151325 0.0006993236 -0.78340334
v 2.134901 1.243416 -0.31382
vt 0.369339 0.870118
vn 0.607269 0.07995165 -0.79046327
v 1.442903 1.243416 -0.8545
vt 0.368275 0.890727
vn 0.607269 0.07995165 -0.79046327
v -0.409706 -1.804093 2.34019
vt 0.429964 0.59793
vn 0.1618083 -0.60936874 0.77620083
v -0.588793 -2.944084 1.609566
vt 0.426153 0.651694
vn 0.1618083 -0.60936874 0.77620083
v -1.61052 -2.990071 1.659443
vt 0.434811 0.617156
vn 0.1618083 -0.60936874 0.77620083
v -1.231814 -2.184175 2.34019
vt 0.437503 0.574152
vn 0.1618083 -0.60936874 0.77620083
v 0.803154 -2.127574 -1.079313
vt 0.380881 0.897836
vn 0.374595 -0.6017822 -0.70536286
v 0.695669 -2.819754 -0.352385
vt 0.392479 0.840687
vn 0.374595 -0.6017822 -0.70536286
v 1.48968 -2.59748 -0.31382
vt 0.3861 0.861087
vn 0.374595 -0.6017822 -0.70536286
v 1.442903 -1.766078 -0.8545
vt 0.377487 0.898908
vn 0.374595 -0.6017822 -0.70536286
v -1.137828 0.227611 2.34019
vt 0.429391 0.570432
vn -0.15526733 0.53866386 0.8280902
v -1.291307 1.374988 1.619188
vt 0.418494 0.618013
vn -0.15526733 0.53866386 0.8280902
v -0.585073 1.563734 1.574698
vt 0.411911 0.642228
vn -0.15526733 0.53866386 0.8280902
v -0.409706 0.520706 2.34019
vt 0.422848 0.59161
vn -0.15526733 0.53866386 0.8280902
v 1.442903 1.243416 -0.8545
vt 0.368275 0.890727
vn 0.13980085 0.6465442 -0.74995756
v 1.369408 2.008908 -0.31382
vt 0.372932 0.844934
vn 0.13980085 0.6465442 -0.74995756
v 1.369408 -2.185571 0.35188
vt 0.393689 0.805249
vn 0.64714324 -0.57914585 0.49577782
v -2.01558 -1.741091 -1.079313
vt 0.401557 0.811717
vn -0.16304094 -0.6441284 -0.7473395
v -1.959969 -2.865419 -0.350265
vt 0.413238 0.760502
vn -0.16304094 -0.6441284 -0.7473395
v -0.666369 -2.919332 -0.358139
vt 0.403278 0.800294
vn -0.16304094 -0.6441284 -0.7473395
v -0.727831 -2.33143 -1.079313
vt 0.393378 0.852186
vn -0.16304094 -0.6441284 -0.7473395
v -0.47676 -0.657386 2.483102
vt 0.428674 0.581821
vn 0.4017453 0.0050685275 0.9157374
v 0.650239 -0.063719 1.977403
vt 0.412103 0.653029
vn 0.5129101 0.005845579 0.85842234
v 0.644716 -1.420078 1.87386
vt 0.415066 0.664496
vn 0.52739584 -0.07024702 0.8467107
v -0.409706 -1.804093 2.34019
vt 0.429964 0.59793
vn 0.43462035 -0.077661365 0.8972591
v 0.82444 -0.443232 -1.185463
vt 0.374298 0.902046
vn 0.0019681272 -8.95408e-05 -0.9999981
v -0.727831 -2.33143 -1.079313
vt 0.393378 0.852186
vn -0.009348913 -0.062636636 -0.99799263
v 0.803154 -2.127574 -1.079313
vt 0.380881 0.897836
vn 0.0060269693 -0.061066356 -0.99811554
v 0.774789 -2.524463 0.908406
vt 0.405956 0.745515
vn 0.2043091 -0.976263 0.07189193
v 0.695669 -2.819754 -0.352385
vt 0.392479 0.840687
vn 0.2043091 -0.976263 0.07189193
v -2.383893 -1.295615 1.451459
vt 0.433147 0.605171
vn -0.9471846 0.2501956 0.20060773
v -2.573872 -0.407586 -0.387623
vt 0.41003 0.73816
vn -0.9471846 0.2501956 0.20060773
v -2.179361 0.898976 -0.319896
vt 0.403777 0.741317
vn -0.9471846 0.2501956 0.20060773
v -2.06389 0.116052 1.367221
vt 0.425343 0.617455
vn -0.9471846 0.2501956 0.20060773
v -2.01558 -1.741091 -1.079313
vt 0.401557 0.811717
vn -0.024722563 -0.06419195 -0.9976313
v 0.803154 -2.127574 -1.079313
vt 0.380881 0.897836
vn 0.35563657 -0.06696391 -0.9322223
v 1.442903 -1.766078 -0.8545
vt 0.377487 0.898908
vn 0.35563657 -0.06696391 -0.9322223
v 1.510786 -0.249319 -0.944276
vt 0.37125 0.903723
vn 0.3396476 0.00013108896 -0.9405527
v 0.82444 -0.443232 -1.185463
vt 0.374298 0.902046
vn 0.3396476 0.00013108896 -0.9405527
v 1.527826 -1.420122 1.185172
vt 0.400027 0.744
vn 0.6142553 -0.06204467 0.78666437
v -0.409706 -1.804093 2.34019
vt 0.429964 0.59793
vn 0.053438503 -0.11922802 0.9914278
v -1.231814 -2.184175 2.34019
vt 0.437503 0.574152
vn 0.053438503 -0.11922802 0.9914278
v 2.134901 1.243416 0.160896
vt 0.374985 0.833686
vn 0.99593073 0.0901228 0
v 2.134901 1.243416 -0.31382
vt 0.369339 0.870118
vn 0.99593073 0.0901228 0
v -1.231814 -2.184175 2.34019
vt 0.437503 0.574152
vn -0.6557626 -0.102060474 0.74803686
v -2.310836 -2.589238 1.389952
vt 0.435809 0.615613
vn -0.6557626 -0.102060474 0.74803686
v -2.383893 -1.295615 1.451459
vt 0.433147 0.605171
vn -0.6557626 -0.102060474 0.74803686
v -1.308331 -1.01849 2.483102
vt 0.436228 0.557706
vn -0.6557626 -0.102060474 0.74803686
v -1.429739 1.243416 -1.079313
vt 0.387878 0.821284
vn -0.750478 0.2667478 -0.604672
v -2.179361 0.898976 -0.319896
vt 0.403777 0.741317
vn -0.750478 0.2667478 -0.604672
v -2.573872 -0.407586 -0.387623
vt 0.41003 0.73816
vn -0.750478 0.2667478 -0.604672
v -1.885343 -0.235916 -1.185463
vt 0.394677 0.819702
vn -0.750478 0.2667478 -0.604672
v 1.535698 1.243458 1.159416
vt 0.391506 0.738973
vn 0.8535999 0.0762245 0.51532215
v 2.134901 1.243416 0.160896
vt 0.374985 0.833686
vn 0.8535999 0.0762245 0.51532215
v 1.442903 -1.766078 -0.8545
vt 0.377487 0.898908
vn 0.6316967 -0.07855757 -0.771225
v 2.134901 -1.420078 -0.31382
vt 0.377492 0.877358
vn 0.6316967 -0.07855757 -0.771225
v -0.409706 0.520706 2.34019
vt 0.422848 0.59161
vn 0.3655492 0.08775652 0.9266459
v 0.636844 1.243416 1.863788
vt 0.406854 0.65779
vn 0.3655492 0.08775652 0.9266459
v 0.650239 -0.063719 1.977403
vt 0.412103 0.653029
vn 0.4017453 0.0050685275 0.9157374
v -0.47676 -0.657386 2.483102
vt 0.428674 0.581821
vn 0.4017453 0.0050685275 0.9157374
v 0.803154 1.243416 -1.079313
vt 0.370562 0.888672
vn -0.0020980726 0.06088761 -0.9981425
v -2.310836 -2.589238 1.389952
vt 0.435809 0.615613
vn -0.99422836 -0.038180858 0.10026049
v -2.549526 -1.716683 -0.351382
vt 0.41428 0.739672
vn -0.99422836 -0.038180858 0.10026049
v -2.573872 -0.407586 -0.387623
vt 0.41003 0.73816
vn -0.99422836 -0.038180858 0.10026049
v -2.383893 -1.295615 1.451459
vt 0.433147 0.605171
vn -0.99422836 -0.038180858 0.10026049
# Faces (%u to %u)
g %s_%u
f -146/-146/-146 -123/-123/-123 -132/-132/-132
f -169/-169/-169 -146/-146/-146 -132/-132/-132
f -132/-132/-132 -123/-123/-123 -31/-31/-31
f -123/-123/-123 -39/-39/-39 -31/-31/-31
f -39/-39/-39 -123/-123/-123 -40/-40/-40
f -38/-38/-38 -39/-39/-39 -40/-40/-40
f -123/-123/-123 -146/-146/-146 -5/-5/-5
f -40/-40/-40 -123/-123/-123 -5/-5/-5
f -137/-137/-137 -164/-164/-164 -151/-151/-151
f -140/-140/-140 -137/-137/-137 -151/-151/-151
f -168/-168/-168 -128/-128/-128 -124/-124/-124
f -143/-143/-143 -168/-168/-168 -124/-124/-124
f -145/-145/-145 -170/-170/-170 -157/-157/-157
f -148/-148/-148 -145/-145/-145 -157/-157/-157
f -145/-145/-145 -148/-148/-148 -149/-149/-149
f -144/-144/-144 -145/-145/-145 -149/-149/-149
f -167/-167/-167 -144/-144/-144 -149/-149/-149
f -156/-156/-156 -167/-167/-167 -149/-149/-149
f -150/-150/-150 -125/-125/-125 -130/-130/-130
f -155/-155/-155 -150/-150/-150 -130/-130/-130
f -130/-130/-130 -125/-125/-125 -26/-26/-26
f -125/-125/-125 -42/-42/-42 -26/-26/-26
f -42/-42/-42 -43/-43/-43 -44/-44/-44
f -41/-41/-41 -42/-42/-42 -44/-44/-44
f -173/-173/-173 -136/-136/-136 -141/-141/-141
f -161/-161/-161 -173/-173/-173 -141/-141/-141
f -136/-136/-136 -36/-36/-36 -141/-141/-141
f -36/-36/-36 -37/-37/-37 -141/-141/-141
f -158/-158/-158 -134/-134/-134 -126/-126/-126
f -147/-147/-147 -158/-158/-158 -126/-126/-126
f -126/-126/-126 -134/-134/-134 -25/-25/-25
f -134/-134/-134 -24/-24/-24 -25/-25/-25
f -165/-165/-165 -127/-127/-127 -129/-129/-129
f -153/-153/-153 -165/-165/-165 -129/-129/-129
f -129/-129/-129 -127/-127/-127 -23/-23/-23
f -127/-127/-127 -22/-22/-22 -23/-23/-23
f -122/-122/-122 -172/-172/-172 -174/-174/-174
f -120/-120/-120 -121/-121/-121 -171/-171/-171
f -118/-118/-118 -166/-166/-166 -119/-119/-119
f -116/-116/-116 -163/-163/-163 -117/-117/-117
f -115/-115/-115 -160/-160/-160 -162/-162/-162
f -113/-113/-113 -114/-114/-114 -159/-159/-159
f -113/-113/-113 -159/-159/-159 -92/-92/-92
f -159/-159/-159 -133/-133/-133 -92/-92/-92
f -111/-111/-111 -154/-154/-154 -112/-112/-112
f -152/-152/-152 -109/-109/-109 -110/-110/-110
f -69/-69/-69 -110/-110/-110 -70/-70/-70
f -68/-68/-68 -69/-69/-69 -70/-70/-70
f -100/-100/-100 -49/-49/-49 -152/-152/-152
f -139/-139/-139 -100/-100/-100 -152/-152/-152
f -100/-100/-100 -139/-139/-139 -142/-142/-142
f -99/-99/-99 -100/-100/-100 -142/-142/-142
f -106/-106/-106 -107/-107/-107 -108/-108/-108
f -105/-105/-105 -106/-106/-106 -108/-108/-108
f -102/-102/-102 -103/-103/-103 -104/-104/-104
f -101/-101/-101 -102/-102/-102 -104/-104/-104
f -76/-76/-76 -101/-101/-101 -104/-104/-104
f -75/-75/-75 -76/-76/-76 -104/-104/-104
f -103/-103/-103 -102/-102/-102 -51/-51/-51
f -102/-102/-102 -50/-50/-50 -51/-51/-51
f -98/-98/-98 -135/-135/-135 -138/-138/-138
f -97/-97/-97 -98/-98/-98 -138/-138/-138
f -94/-94/-94 -95/-95/-95 -96/-96/-96
f -93/-93/-93 -94/-94/-94 -96/-96/-96
f -89/-89/-89 -90/-90/-90 -91/-91/-91
f -88/-88/-88 -89/-89/-89 -91/-91/-91
f -86/-86/-86 -131/-131/-131 -87/-87/-87
f -85/-85/-85 -86/-86/-86 -87/-87/-87
f -82/-82/-82 -83/-83/-83 -84/-84/-84
f -81/-81/-81 -82/-82/-82 -84/-84/-84
f -78/-78/-78 -79/-79/-79 -80/-80/-80
f -77/-77/-77 -78/-78/-78 -80/-80/-80
f -72/-72/-72 -73/-73/-73 -74/-74/-74
f -71/-71/-71 -72/-72/-72 -74/-74/-74
f -74/-74/-74 -73/-73/-73 -13/-13/-13
f -73/-73/-73 -12/-12/-12 -13/-13/-13
f -65/-65/-65 -66/-66/-66 -67/-67/-67
f -64/-64/-64 -65/-65/-65 -67/-67/-67
f -67/-67/-67 -66/-66/-66 -11/-11/-11
f -66/-66/-66 -10/-10/-10 -11/-11/-11
f -61/-61/-61 -62/-62/-62 -63/-63/-63
f -60/-60/-60 -61/-61/-61 -63/-63/-63
f -57/-57/-57 -58/-58/-58 -59/-59/-59
f -56/-56/-56 -57/-57/-57 -59/-59/-59
f -53/-53/-53 -54/-54/-54 -55/-55/-55
f -52/-52/-52 -53/-53/-53 -55/-55/-55
f -46/-46/-46 -47/-47/-47 -48/-48/-48
f -45/-45/-45 -46/-46/-46 -48/-48/-48
f -33/-33/-33 -34/-34/-34 -35/-35/-35
f -32/-32/-32 -33/-33/-33 -35/-35/-35
f -28/-28/-28 -29/-29/-29 -30/-30/-30
f -27/-27/-27 -28/-28/-28 -30/-30/-30
f -19/-19/-19 -20/-20/-20 -21/-21/-21
f -18/-18/-18 -19/-19/-19 -21/-21/-21
f -15/-15/-15 -16/-16/-16 -17/-17/-17
f -14/-14/-14 -15/-15/-15 -17/-17/-17
f -7/-7/-7 -8/-8/-8 -9/-9/-9
f -6/-6/-6 -7/-7/-7 -9/-9/-9
f -2/-2/-2 -3/-3/-3 -4/-4/-4
f -1/-1/-1 -2/-2/-2 -4/-4/-4

