# Mesh "item_box_tahkot" exported with UABE; 20 vertices, 30 indices, 384 bits per vertex
g item_box_tahkot
# SubMesh 0
# Vertices
v 0.988057 2.392659 1.104528
vt 0.977222 0.973981
vn -0 0 1
v 0.988057 0.339577 1.104528
vt 0.977222 0.038981
vn -0 0 1
v -1.065025 0.339577 1.104528
vt 0.042222 0.038981
vn -0 0 1
v -1.065025 2.392659 1.104528
vt 0.042222 0.973981
vn -0 0 1
v -1.224922 2.423736 1.049559
vt 0.977222 0.973981
vn -1 0 0
v -1.224922 0.3085 1.049559
vt 0.977222 0.038981
vn -1 0 0
v -1.224922 0.3085 -1.065676
vt 0.042222 0.038981
vn -1 0 0
v -1.224922 2.423736 -1.065676
vt 0.042222 0.973981
vn -1 0 0
v 0.964273 2.529479 0.994699
vt 0.042222 0.038981
vn -0 1 0
v -1.041242 2.529479 0.994699
vt 0.042222 0.973981
vn -0 1 0
v -1.041242 2.529479 -1.010816
vt 0.977222 0.973981
vn -0 1 0
v 0.964273 2.529479 -1.010816
vt 0.977222 0.038981
vn -0 1 0
v 1.115986 2.400747 -1.042688
vt 0.977222 0.973981
vn 1 0 0
v 1.115986 0.331488 -1.042688
vt 0.977222 0.038981
vn 1 0 0
v 1.115986 0.331488 1.026571
vt 0.042222 0.038981
vn 1 0 0
v 1.115986 2.400747 1.026571
vt 0.042222 0.973981
vn 1 0 0
v -1.117685 2.445318 -1.113228
vt 0.977222 0.973981
vn -0 0 -1
v -1.117685 0.286917 -1.113228
vt 0.977222 0.038981
vn -0 0 -1
v 1.040716 0.286917 -1.113228
vt 0.042222 0.038981
vn -0 0 -1
v 1.040716 2.445318 -1.113228
vt 0.042222 0.973981
vn -0 0 -1
# Faces (%u to %u)
g %s_%u
f -18/-18/-18 -19/-19/-19 -20/-20/-20
f -17/-17/-17 -18/-18/-18 -20/-20/-20
f -14/-14/-14 -15/-15/-15 -16/-16/-16
f -13/-13/-13 -14/-14/-14 -16/-16/-16
f -10/-10/-10 -11/-11/-11 -12/-12/-12
f -9/-9/-9 -10/-10/-10 -12/-12/-12
f -6/-6/-6 -7/-7/-7 -8/-8/-8
f -5/-5/-5 -6/-6/-6 -8/-8/-8
f -2/-2/-2 -3/-3/-3 -4/-4/-4
f -1/-1/-1 -2/-2/-2 -4/-4/-4

