# Mesh "jalka" exported with UABE; 116 vertices, 174 indices, 384 bits per vertex
g jalka
# SubMesh 0
# Vertices
v 0.315574 -1.420535 -0.442129
vt 0.029321 0.386134
vn -0.058545027 -0.9605854 0.27175012
v 0.192296 -1.42153 -0.472204
vt 0.029321 0.466219
vn -0.058545027 -0.9605854 0.27175012
v -0.22111 -0.92163 1.205786
vt 0.109405 0.466219
vn -0.058545027 -0.9605854 0.27175012
v -0.097831 -0.920635 1.235861
vt 0.109405 0.386134
vn -0.058545027 -0.9605854 0.27175012
v -0.304613 1.723436 1.504782
vt 0.029321 0.386134
vn -0.9832516 0.09997696 -0.15238394
v -0.302697 1.52741 1.503415
vt 0.029321 0.466219
vn -0.9832516 0.09997696 -0.15238394
v -0.065537 1.044038 -0.483586
vt 0.109405 0.466219
vn -0.9832516 0.09997696 -0.15238394
v -0.030601 1.233115 -0.445357
vt 0.109405 0.386134
vn -0.9832516 0.09997696 -0.15238394
v 0.336493 -1.224623 -0.534354
vt 0.029321 0.386134
vn 0.23687102 0.015148001 -0.97142303
v 0.213214 -1.225618 -0.56443
vt 0.029321 0.466219
vn 0.23687102 0.015148001 -0.97142303
v 0.2154 -1.420644 -0.566938
vt 0.109405 0.466219
vn 0.23687102 0.015148001 -0.97142303
v 0.338679 -1.419649 -0.536862
vt 0.109405 0.386134
vn 0.23687102 0.015148001 -0.97142303
v -0.141076 1.264447 -0.499363
vt 0.029321 0.386134
vn -0.48141393 -0.60615593 0.6330999
v -0.200065 1.756839 -0.072783
vt 0.029321 0.466219
vn -0.48141393 -0.60615593 0.6330999
v -0.089589 1.725507 -0.018776
vt 0.109405 0.466219
vn -0.48141393 -0.60615593 0.6330999
v -0.030601 1.233115 -0.445357
vt 0.109405 0.386134
vn -0.48141393 -0.60615593 0.6330999
v 0.014121 1.242274 -0.531525
vt 0.029321 0.386134
vn 0.45862225 0.093927056 -0.88365346
v -0.096354 1.273607 -0.585532
vt 0.029321 0.466219
vn 0.45862225 0.093927056 -0.88365346
v -0.13129 1.08453 -0.623762
vt 0.109405 0.466219
vn 0.45862225 0.093927056 -0.88365346
v -0.020815 1.053197 -0.569755
vt 0.109405 0.386134
vn 0.45862225 0.093927056 -0.88365346
v -0.065537 1.044038 -0.483586
vt 0.029321 0.386134
vn 0.8705783 -0.2469101 0.42559215
v -0.030601 1.233115 -0.445357
vt 0.029321 0.466219
vn 0.8705783 -0.2469101 0.42559215
v 0.014121 1.242274 -0.531525
vt 0.109405 0.466219
vn 0.8705783 -0.2469101 0.42559215
v -0.020815 1.053197 -0.569755
vt 0.109405 0.386134
vn 0.8705783 -0.2469101 0.42559215
v -0.302697 1.52741 1.503415
vt 0.029321 0.386134
vn 0.19663797 0.95978487 -0.20036599
v -0.425976 1.526415 1.47334
vt 0.029321 0.466219
vn 0.19663797 0.95978487 -0.20036599
v -0.176012 1.075371 -0.537593
vt 0.109405 0.466219
vn 0.19663797 0.95978487 -0.20036599
v -0.065537 1.044038 -0.483586
vt 0.109405 0.386134
vn 0.19663797 0.95978487 -0.20036599
v -0.304613 1.723436 1.504782
vt 0.029321 0.386134
vn 0.236935 0.009089 -0.971483
v -0.427892 1.722441 1.474707
vt 0.029321 0.466219
vn 0.236935 0.009089 -0.971483
v -0.425976 1.526415 1.47334
vt 0.109405 0.466219
vn 0.236935 0.009089 -0.971483
v -0.302697 1.52741 1.503415
vt 0.109405 0.386134
vn 0.236935 0.009089 -0.971483
v -0.065537 1.044038 -0.483586
vt 0.029321 0.386134
vn 0.9220936 0.15547493 0.35435987
v -0.020815 1.053197 -0.569755
vt 0.029321 0.466219
vn 0.9220936 0.15547493 0.35435987
v 0.336493 -1.224623 -0.534354
vt 0.109405 0.466219
vn 0.9220936 0.15547493 0.35435987
v 0.313389 -1.225509 -0.439621
vt 0.109405 0.386134
vn 0.9220936 0.15547493 0.35435987
v 0.192296 -1.42153 -0.472204
vt 0.029321 0.386134
vn -0.97148526 -0.0069110016 -0.23699906
v 0.208234 -2.219491 -0.514268
vt 0.029321 0.466219
vn -0.97148526 -0.0069110016 -0.23699906
v 0.231339 -2.218604 -0.609001
vt 0.109405 0.466219
vn -0.97148526 -0.0069110016 -0.23699906
v 0.2154 -1.420644 -0.566938
vt 0.109405 0.386134
vn -0.97148526 -0.0069110016 -0.23699906
v 0.313389 -1.225509 -0.439621
vt 0.029321 0.386134
vn 0.9714765 0.007841005 0.2370061
v 0.336493 -1.224623 -0.534354
vt 0.029321 0.466219
vn 0.9714765 0.007841005 0.2370061
v 0.338679 -1.419649 -0.536862
vt 0.109405 0.466219
vn 0.9714765 0.007841005 0.2370061
v 0.315574 -1.420535 -0.442129
vt 0.109405 0.386134
vn 0.9714765 0.007841005 0.2370061
v 0.313389 -1.225509 -0.439621
vt 0.029321 0.386134
vn 0.97147655 0.007840997 0.23700589
v 0.315574 -1.420535 -0.442129
vt 0.029321 0.466219
vn 0.97147655 0.007840997 0.23700589
v -0.097831 -0.920635 1.235861
vt 0.109405 0.466219
vn 0.97147655 0.007840997 0.23700589
v -0.100016 -0.72561 1.238369
vt 0.109405 0.386134
vn 0.97147655 0.007840997 0.23700589
v 0.19011 -1.226504 -0.469696
vt 0.029321 0.386134
vn -0.97147655 -0.007840997 -0.23700589
v -0.223295 -0.726605 1.208294
vt 0.029321 0.466219
vn -0.97147655 -0.007840997 -0.23700589
v -0.22111 -0.92163 1.205786
vt 0.109405 0.466219
vn -0.97147655 -0.007840997 -0.23700589
v 0.192296 -1.42153 -0.472204
vt 0.109405 0.386134
vn -0.97147655 -0.007840997 -0.23700589
v 0.315574 -1.420535 -0.442129
vt 0.029321 0.386134
vn 0.97148514 0.0069110007 0.23700003
v 0.338679 -1.419649 -0.536862
vt 0.029321 0.466219
vn 0.97148514 0.0069110007 0.23700003
v 0.354618 -2.217609 -0.578926
vt 0.109405 0.466219
vn 0.97148514 0.0069110007 0.23700003
v 0.331513 -2.218496 -0.484192
vt 0.109405 0.386134
vn 0.97148514 0.0069110007 0.23700003
v -0.176012 1.075371 -0.537593
vt 0.029321 0.386134
vn -0.922674 -0.151943 -0.354381
v 0.19011 -1.226504 -0.469696
vt 0.029321 0.466219
vn -0.922674 -0.151943 -0.354381
v 0.213214 -1.225618 -0.56443
vt 0.109405 0.466219
vn -0.922674 -0.151943 -0.354381
v -0.13129 1.08453 -0.623762
vt 0.109405 0.386134
vn -0.922674 -0.151943 -0.354381
v -0.427892 1.722441 1.474707
vt 0.029321 0.386134
vn 0.98277825 -0.10023002 0.15524402
v -0.141076 1.264447 -0.499363
vt 0.029321 0.466219
vn 0.98277825 -0.10023002 0.15524402
v -0.176012 1.075371 -0.537593
vt 0.109405 0.466219
vn 0.98277825 -0.10023002 0.15524402
v -0.425976 1.526415 1.47334
vt 0.109405 0.386134
vn 0.98277825 -0.10023002 0.15524402
v -0.176012 1.075371 -0.537593
vt 0.029321 0.386134
vn -0.8705783 0.2469101 -0.42559215
v -0.13129 1.08453 -0.623762
vt 0.029321 0.466219
vn -0.8705783 0.2469101 -0.42559215
v -0.096354 1.273607 -0.585532
vt 0.109405 0.466219
vn -0.8705783 0.2469101 -0.42559215
v -0.141076 1.264447 -0.499363
vt 0.109405 0.386134
vn -0.8705783 0.2469101 -0.42559215
v 0.19011 -1.226504 -0.469696
vt 0.029321 0.386134
vn -0.9714765 -0.007841005 -0.2370061
v 0.192296 -1.42153 -0.472204
vt 0.029321 0.466219
vn -0.9714765 -0.007841005 -0.2370061
v 0.2154 -1.420644 -0.566938
vt 0.109405 0.466219
vn -0.9714765 -0.007841005 -0.2370061
v 0.213214 -1.225618 -0.56443
vt 0.109405 0.386134
vn -0.9714765 -0.007841005 -0.2370061
v 0.313389 -1.225509 -0.439621
vt 0.029321 0.386134
vn -0.3420551 -0.032768015 0.9391084
v 0.19011 -1.226504 -0.469696
vt 0.029321 0.466219
vn -0.3420551 -0.032768015 0.9391084
v -0.176012 1.075371 -0.537593
vt 0.109405 0.466219
vn -0.3420551 -0.032768015 0.9391084
v -0.065537 1.044038 -0.483586
vt 0.109405 0.386134
vn -0.3420551 -0.032768015 0.9391084
v 0.331513 -2.218496 -0.484192
vt 0.029321 0.386134
vn -0.2362181 -0.055855017 0.97009337
v 0.208234 -2.219491 -0.514268
vt 0.029321 0.466219
vn -0.2362181 -0.055855017 0.97009337
v 0.192296 -1.42153 -0.472204
vt 0.109405 0.466219
vn -0.2362181 -0.055855017 0.97009337
v 0.315574 -1.420535 -0.442129
vt 0.109405 0.386134
vn -0.2362181 -0.055855017 0.97009337
v -0.097831 -0.920635 1.235861
vt 0.029321 0.386134
vn -0.23687196 -0.015146997 0.9714228
v -0.22111 -0.92163 1.205786
vt 0.029321 0.466219
vn -0.23687196 -0.015146997 0.9714228
v -0.223295 -0.726605 1.208294
vt 0.109405 0.466219
vn -0.23687196 -0.015146997 0.9714228
v -0.100016 -0.72561 1.238369
vt 0.109405 0.386134
vn -0.23687196 -0.015146997 0.9714228
v -0.020815 1.053197 -0.569755
vt 0.029321 0.386134
vn 0.342073 0.032936 -0.939096
v -0.13129 1.08453 -0.623762
vt 0.029321 0.466219
vn 0.342073 0.032936 -0.939096
v 0.213214 -1.225618 -0.56443
vt 0.109405 0.466219
vn 0.342073 0.032936 -0.939096
v 0.336493 -1.224623 -0.534354
vt 0.109405 0.386134
vn 0.342073 0.032936 -0.939096
v 0.338679 -1.419649 -0.536862
vt 0.029321 0.386134
vn 0.23621693 0.05585498 -0.9700937
v 0.2154 -1.420644 -0.566938
vt 0.029321 0.466219
vn 0.23621693 0.05585498 -0.9700937
v 0.231339 -2.218604 -0.609001
vt 0.109405 0.466219
vn 0.23621693 0.05585498 -0.9700937
v 0.354618 -2.217609 -0.578926
vt 0.109405 0.386134
vn 0.23621693 0.05585498 -0.9700937
v -0.100016 -0.72561 1.238369
vt 0.029321 0.386134
vn 0.058545027 0.9605854 -0.27175012
v -0.223295 -0.726605 1.208294
vt 0.029321 0.466219
vn 0.058545027 0.9605854 -0.27175012
v 0.19011 -1.226504 -0.469696
vt 0.109405 0.466219
vn 0.058545027 0.9605854 -0.27175012
v 0.313389 -1.225509 -0.439621
vt 0.109405 0.386134
vn 0.058545027 0.9605854 -0.27175012
v -0.030601 1.233115 -0.445357
vt 0.029321 0.386134
vn -0.197648 -0.9589211 0.20348401
v -0.141076 1.264447 -0.499363
vt 0.029321 0.466219
vn -0.197648 -0.9589211 0.20348401
v -0.427892 1.722441 1.474707
vt 0.109405 0.466219
vn -0.197648 -0.9589211 0.20348401
v -0.304613 1.723436 1.504782
vt 0.109405 0.386134
vn -0.197648 -0.9589211 0.20348401
v -0.089589 1.725507 -0.018776
vt 0.029321 0.386134
vn 0.17821003 0.9644751 0.19501004
v -0.200065 1.756839 -0.072783
vt 0.029321 0.466219
vn 0.17821003 0.9644751 0.19501004
v -0.155342 1.765998 -0.158952
vt 0.109405 0.466219
vn 0.17821003 0.9644751 0.19501004
v -0.044867 1.734666 -0.104945
vt 0.109405 0.386134
vn 0.17821003 0.9644751 0.19501004
v -0.030601 1.233115 -0.445357
vt 0.029321 0.386134
vn 0.86766595 -0.262059 0.42246997
v -0.089589 1.725507 -0.018776
vt 0.029321 0.466219
vn 0.86766595 -0.262059 0.42246997
v -0.044867 1.734666 -0.104945
vt 0.109405 0.466219
vn 0.86766595 -0.262059 0.42246997
v 0.014121 1.242274 -0.531525
vt 0.109405 0.386134
vn 0.86766595 -0.262059 0.42246997
v -0.096354 1.273607 -0.585532
vt 0.029321 0.386134
vn -0.86766595 0.262059 -0.42246997
v -0.155342 1.765998 -0.158952
vt 0.029321 0.466219
vn -0.86766595 0.262059 -0.42246997
v -0.200065 1.756839 -0.072783
vt 0.109405 0.466219
vn -0.86766595 0.262059 -0.42246997
v -0.141076 1.264447 -0.499363
vt 0.109405 0.386134
vn -0.86766595 0.262059 -0.42246997
v 0.014121 1.242274 -0.531525
vt 0.029321 0.386134
vn 0.48141426 0.60615534 -0.63310033
v -0.044867 1.734666 -0.104945
vt 0.029321 0.466219
vn 0.48141426 0.60615534 -0.63310033
v -0.155342 1.765998 -0.158952
vt 0.109405 0.466219
vn 0.48141426 0.60615534 -0.63310033
v -0.096354 1.273607 -0.585532
vt 0.109405 0.386134
vn 0.48141426 0.60615534 -0.63310033
# Faces (%u to %u)
g %s_%u
f -114/-114/-114 -115/-115/-115 -116/-116/-116
f -113/-113/-113 -114/-114/-114 -116/-116/-116
f -110/-110/-110 -111/-111/-111 -112/-112/-112
f -109/-109/-109 -110/-110/-110 -112/-112/-112
f -106/-106/-106 -107/-107/-107 -108/-108/-108
f -105/-105/-105 -106/-106/-106 -108/-108/-108
f -102/-102/-102 -103/-103/-103 -104/-104/-104
f -101/-101/-101 -102/-102/-102 -104/-104/-104
f -98/-98/-98 -99/-99/-99 -100/-100/-100
f -97/-97/-97 -98/-98/-98 -100/-100/-100
f -94/-94/-94 -95/-95/-95 -96/-96/-96
f -93/-93/-93 -94/-94/-94 -96/-96/-96
f -90/-90/-90 -91/-91/-91 -92/-92/-92
f -89/-89/-89 -90/-90/-90 -92/-92/-92
f -86/-86/-86 -87/-87/-87 -88/-88/-88
f -85/-85/-85 -86/-86/-86 -88/-88/-88
f -82/-82/-82 -83/-83/-83 -84/-84/-84
f -81/-81/-81 -82/-82/-82 -84/-84/-84
f -78/-78/-78 -79/-79/-79 -80/-80/-80
f -77/-77/-77 -78/-78/-78 -80/-80/-80
f -74/-74/-74 -75/-75/-75 -76/-76/-76
f -73/-73/-73 -74/-74/-74 -76/-76/-76
f -70/-70/-70 -71/-71/-71 -72/-72/-72
f -69/-69/-69 -70/-70/-70 -72/-72/-72
f -66/-66/-66 -67/-67/-67 -68/-68/-68
f -65/-65/-65 -66/-66/-66 -68/-68/-68
f -62/-62/-62 -63/-63/-63 -64/-64/-64
f -61/-61/-61 -62/-62/-62 -64/-64/-64
f -58/-58/-58 -59/-59/-59 -60/-60/-60
f -57/-57/-57 -58/-58/-58 -60/-60/-60
f -54/-54/-54 -55/-55/-55 -56/-56/-56
f -53/-53/-53 -54/-54/-54 -56/-56/-56
f -50/-50/-50 -51/-51/-51 -52/-52/-52
f -49/-49/-49 -50/-50/-50 -52/-52/-52
f -46/-46/-46 -47/-47/-47 -48/-48/-48
f -45/-45/-45 -46/-46/-46 -48/-48/-48
f -42/-42/-42 -43/-43/-43 -44/-44/-44
f -41/-41/-41 -42/-42/-42 -44/-44/-44
f -38/-38/-38 -39/-39/-39 -40/-40/-40
f -37/-37/-37 -38/-38/-38 -40/-40/-40
f -34/-34/-34 -35/-35/-35 -36/-36/-36
f -33/-33/-33 -34/-34/-34 -36/-36/-36
f -30/-30/-30 -31/-31/-31 -32/-32/-32
f -29/-29/-29 -30/-30/-30 -32/-32/-32
f -26/-26/-26 -27/-27/-27 -28/-28/-28
f -25/-25/-25 -26/-26/-26 -28/-28/-28
f -22/-22/-22 -23/-23/-23 -24/-24/-24
f -21/-21/-21 -22/-22/-22 -24/-24/-24
f -18/-18/-18 -19/-19/-19 -20/-20/-20
f -17/-17/-17 -18/-18/-18 -20/-20/-20
f -14/-14/-14 -15/-15/-15 -16/-16/-16
f -13/-13/-13 -14/-14/-14 -16/-16/-16
f -10/-10/-10 -11/-11/-11 -12/-12/-12
f -9/-9/-9 -10/-10/-10 -12/-12/-12
f -6/-6/-6 -7/-7/-7 -8/-8/-8
f -5/-5/-5 -6/-6/-6 -8/-8/-8
f -2/-2/-2 -3/-3/-3 -4/-4/-4
f -1/-1/-1 -2/-2/-2 -4/-4/-4

