# Mesh "kontti_seinaoikea" exported with UABE; 44 vertices, 84 indices, 384 bits per vertex
g kontti_seinaoikea
# SubMesh 0
# Vertices
v 0.152031 -6.076128 1.691966
vt 0.010547 0.014453
vn -0 0 1
v -0.152031 -6.076128 1.691966
vt 0.010547 0.114453
vn -0 0 1
v -0.152031 6.076128 1.691966
vt 0.110547 0.114453
vn -0 0 1
v 0.152031 6.076128 1.691966
vt 0.110547 0.014453
vn -0 0 1
v -0.152031 -6.076128 -1.691966
vt 0.010547 0.014453
vn -0 0 -1
v 0.152031 -6.076128 -1.691966
vt 0.010547 0.114453
vn -0 0 -1
v 0.152031 6.076128 -1.691966
vt 0.110547 0.114453
vn -0 0 -1
v -0.152031 6.076128 -1.691966
vt 0.110547 0.014453
vn -0 0 -1
v 0.152031 -6.076128 -0.563989
vt 0.010547 0.08112
vn -0 -1 0
v 0.152031 -6.076128 -1.691966
vt 0.010547 0.114453
vn -0 -1 0
v -0.152031 -6.076128 -1.691966
vt 0.110547 0.114453
vn -0 -1 0
v -0.152031 -6.076128 -0.563989
vt 0.110547 0.08112
vn -0 -1 0
v 0.152031 -6.076128 0.563989
vt 0.010547 0.047787
vn -0 -1 0
v -0.152031 -6.076128 0.563989
vt 0.110547 0.047787
vn -0 -1 0
v 0.152031 -6.076128 1.691966
vt 0.010547 0.014453
vn -0 -1 0
v -0.152031 -6.076128 1.691966
vt 0.110547 0.014453
vn -0 -1 0
v 0.152031 6.076128 -0.563989
vt 0.135547 0.83112
vn 1 0 0
v 0.152031 6.076128 -1.691966
vt 0.135547 0.864453
vn 1 0 0
v 0.152031 -6.076128 -1.691966
vt 0.235547 0.864453
vn 1 0 0
v 0.152031 -6.076128 -0.563989
vt 0.235547 0.83112
vn 1 0 0
v 0.152031 6.076128 0.563989
vt 0.135547 0.797787
vn 1 0 0
v 0.152031 -6.076128 0.563989
vt 0.235547 0.797787
vn 1 0 0
v 0.152031 6.076128 1.691966
vt 0.135547 0.764453
vn 1 0 0
v 0.152031 -6.076128 1.691966
vt 0.235547 0.764453
vn 1 0 0
v -0.152031 6.076128 -0.563989
vt 0.010547 0.08112
vn -0 1 0
v -0.152031 6.076128 -1.691966
vt 0.010547 0.114453
vn -0 1 0
v 0.152031 6.076128 -1.691966
vt 0.110547 0.114453
vn -0 1 0
v 0.152031 6.076128 -0.563989
vt 0.110547 0.08112
vn -0 1 0
v -0.152031 6.076128 0.563989
vt 0.010547 0.047787
vn -0 1 0
v 0.152031 6.076128 0.563989
vt 0.110547 0.047787
vn -0 1 0
v -0.152031 6.076128 1.691966
vt 0.010547 0.014453
vn -0 1 0
v 0.152031 6.076128 1.691966
vt 0.110547 0.014453
vn -0 1 0
v -0.152031 -6.076128 -0.563989
vt 0.010547 0.08112
vn -1 0 0
v -0.152031 -6.076128 -1.691966
vt 0.010547 0.114453
vn -1 0 0
v -0.152031 6.076128 -1.691966
vt 0.110547 0.114453
vn -1 0 0
v -0.152031 6.076128 -0.563989
vt 0.110547 0.08112
vn -1 0 0
v -0.152031 -6.076128 1.691966
vt 0.010547 0.014453
vn -1 0 0
v -0.152031 -6.076128 0.563989
vt 0.010547 0.047787
vn -1 0 0
v -0.152031 6.076128 0.563989
vt 0.110547 0.047787
vn -1 0 0
v -0.152031 6.076128 1.691966
vt 0.110547 0.014453
vn -1 0 0
v -0.152031 -6.076128 0.563989
vt 0.010547 0.166927
vn -1 0 0
v -0.152031 -6.076128 -0.563989
vt 0.010547 0.20026
vn -1 0 0
v -0.152031 6.076128 -0.563989
vt 0.110547 0.20026
vn -1 0 0
v -0.152031 6.076128 0.563989
vt 0.110547 0.166927
vn -1 0 0
# Faces (%u to %u)
g %s_%u
f -42/-42/-42 -43/-43/-43 -44/-44/-44
f -41/-41/-41 -42/-42/-42 -44/-44/-44
f -38/-38/-38 -39/-39/-39 -40/-40/-40
f -37/-37/-37 -38/-38/-38 -40/-40/-40
f -34/-34/-34 -35/-35/-35 -36/-36/-36
f -33/-33/-33 -34/-34/-34 -36/-36/-36
f -33/-33/-33 -36/-36/-36 -32/-32/-32
f -31/-31/-31 -33/-33/-33 -32/-32/-32
f -31/-31/-31 -32/-32/-32 -30/-30/-30
f -29/-29/-29 -31/-31/-31 -30/-30/-30
f -26/-26/-26 -27/-27/-27 -28/-28/-28
f -25/-25/-25 -26/-26/-26 -28/-28/-28
f -25/-25/-25 -28/-28/-28 -24/-24/-24
f -23/-23/-23 -25/-25/-25 -24/-24/-24
f -23/-23/-23 -24/-24/-24 -22/-22/-22
f -21/-21/-21 -23/-23/-23 -22/-22/-22
f -18/-18/-18 -19/-19/-19 -20/-20/-20
f -17/-17/-17 -18/-18/-18 -20/-20/-20
f -17/-17/-17 -20/-20/-20 -16/-16/-16
f -15/-15/-15 -17/-17/-17 -16/-16/-16
f -15/-15/-15 -16/-16/-16 -14/-14/-14
f -13/-13/-13 -15/-15/-15 -14/-14/-14
f -10/-10/-10 -11/-11/-11 -12/-12/-12
f -9/-9/-9 -10/-10/-10 -12/-12/-12
f -6/-6/-6 -7/-7/-7 -8/-8/-8
f -5/-5/-5 -6/-6/-6 -8/-8/-8
f -2/-2/-2 -3/-3/-3 -4/-4/-4
f -1/-1/-1 -2/-2/-2 -4/-4/-4

